<svg xmlns="http://www.w3.org/2000/svg" xmlns:xlink="http://www.w3.org/1999/xlink" width="500" zoomAndPan="magnify" viewBox="0 0 375 294.749989" height="393" preserveAspectRatio="xMidYMid meet" version="1.0"><defs><clipPath id="ed1a5900b9"><path d="M 0.21875 0 L 374.839844 0 L 374.839844 294.5 L 0.21875 294.5 Z M 0.21875 0 " clip-rule="nonzero"/></clipPath></defs><g clip-path="url(#ed1a5900b9)"><path fill="#000000" d="M 322.175781 26.859375 L 52.941406 26.859375 L 179.402344 124.101562 C 184.210938 127.796875 190.90625 127.796875 195.71875 124.101562 Z M 26.980469 40.648438 L 26.980469 267.640625 L 348.136719 267.640625 L 348.136719 40.648438 L 212.035156 145.304688 C 197.605469 156.402344 177.511719 156.402344 163.082031 145.304688 Z M 0.21875 26.859375 C 0.21875 12.082031 12.199219 0.105469 26.980469 0.105469 L 348.136719 0.105469 C 362.917969 0.105469 374.902344 12.082031 374.902344 26.859375 L 374.902344 267.640625 C 374.902344 282.417969 362.917969 294.394531 348.136719 294.394531 L 26.980469 294.394531 C 12.199219 294.394531 0.21875 282.417969 0.21875 267.640625 Z M 0.21875 26.859375 " fill-opacity="1" fill-rule="evenodd"/></g></svg>