<svg xmlns="http://www.w3.org/2000/svg" xmlns:xlink="http://www.w3.org/1999/xlink" width="500" zoomAndPan="magnify" viewBox="0 0 375 294.749989" height="393" preserveAspectRatio="xMidYMid meet" version="1.0"><defs><clipPath id="c737e3ce46"><path d="M 80.742188 0 L 294.3125 0 L 294.3125 294.5 L 80.742188 294.5 Z M 80.742188 0 " clip-rule="nonzero"/></clipPath></defs><g clip-path="url(#c737e3ce46)"><path fill="#1e1e1d" d="M 187.527344 33.851562 C 212.960938 33.851562 233.558594 54.460938 233.558594 79.886719 L 233.558594 125.992188 L 141.5 125.992188 L 141.5 79.886719 C 141.5 54.460938 162.09375 33.851562 187.527344 33.851562 Z M 267.019531 126.320312 L 267.019531 79.546875 C 267.019531 35.65625 231.429688 0.0742188 187.527344 0.0742188 C 143.625 0.0742188 108.035156 35.65625 108.035156 79.546875 L 108.035156 126.320312 C 92.625 128.429688 80.746094 141.605469 80.746094 157.589844 L 80.746094 262.808594 C 80.746094 280.257812 94.894531 294.40625 112.351562 294.40625 L 262.703125 294.40625 C 280.160156 294.40625 294.308594 280.257812 294.308594 262.808594 L 294.308594 157.589844 C 294.308594 141.605469 282.425781 128.429688 267.019531 126.320312 " fill-opacity="1" fill-rule="nonzero"/></g></svg>