<svg xmlns="http://www.w3.org/2000/svg" xmlns:xlink="http://www.w3.org/1999/xlink" width="500" zoomAndPan="magnify" viewBox="0 0 375 288.749989" height="385" preserveAspectRatio="xMidYMid meet" version="1.0"><defs><clipPath id="08f64f6190"><path d="M 0.292969 22 L 35 22 L 35 139 L 0.292969 139 Z M 0.292969 22 " clip-rule="nonzero"/></clipPath><clipPath id="ddc1aaf533"><path d="M 42 0 L 348 0 L 348 288.5 L 42 288.5 Z M 42 0 " clip-rule="nonzero"/></clipPath></defs><path fill="#040606" d="M 60.9375 6.875 C 61.445312 7.074219 62.746094 6.472656 62.683594 7.230469 C 63.632812 9.015625 61.496094 10.523438 60.585938 11.425781 C 57.457031 14.519531 53.261719 17.558594 50.433594 21.222656 C 49.394531 22.574219 48.71875 24.613281 47.632812 26.121094 C 46.554688 27.609375 45.402344 28.863281 44.484375 30.316406 C 42.546875 33.371094 41.078125 36.617188 39.230469 39.765625 C 35.527344 46.066406 31.867188 52.230469 29.078125 59.007812 C 24.785156 69.4375 21.792969 81.316406 20.328125 94.339844 C 19.898438 98.128906 20.730469 104.015625 17.175781 105.183594 C 15.917969 104.394531 16.183594 103.359375 16.125 102.386719 C 15.957031 99.679688 17.167969 95.875 17.527344 92.585938 C 18.90625 79.738281 22.34375 67.902344 26.628906 57.253906 C 29.378906 50.421875 33.074219 44.078125 36.777344 37.664062 C 39.515625 32.925781 42.027344 28.378906 45.183594 24.023438 C 47.984375 20.136719 50.425781 16.976562 53.933594 13.523438 C 56.300781 11.199219 58.386719 8.921875 60.9375 6.875 " fill-opacity="1" fill-rule="evenodd"/><g clip-path="url(#08f64f6190)"><path fill="#040606" d="M 33.980469 22.972656 C 34.289062 25.207031 31.847656 26.035156 30.824219 27.519531 C 28.710938 30.59375 27.175781 34.691406 25.222656 38.363281 C 21.445312 45.488281 18.796875 51.234375 16.125 60.40625 C 15.046875 64.109375 13.902344 67.804688 12.625 71.601562 C 10.128906 78.988281 6.980469 86.996094 5.621094 94.339844 C 5.121094 97.046875 5.273438 100.125 4.921875 103.085938 C 4.0625 110.21875 3.125 120.222656 3.867188 129.324219 C 4.097656 132.113281 6.144531 137.496094 2.121094 138.417969 C 0.285156 136.585938 1.070312 133.636719 1.070312 131.421875 C 1.070312 119.257812 0.90625 105.792969 2.46875 95.035156 C 3.378906 88.785156 5.917969 82.222656 8.070312 75.796875 C 12.363281 62.980469 14.941406 50.5625 21.019531 39.066406 C 22.472656 36.328125 24 33.578125 25.574219 31.019531 C 27.304688 28.203125 28.589844 25.167969 30.476562 23.324219 C 30.824219 22.410156 33.214844 22.386719 33.980469 22.972656 " fill-opacity="1" fill-rule="evenodd"/></g><path fill="#040606" d="M 65.132812 25.769531 C 66.609375 28.796875 63.550781 31.996094 60.9375 33.117188 C 59.546875 35.519531 57.910156 37.761719 56.382812 40.113281 C 54.871094 42.4375 52.847656 44.402344 51.480469 46.761719 C 50.691406 48.132812 50.191406 49.957031 49.382812 51.660156 C 45.917969 58.980469 41.230469 67.609375 39.582031 77.195312 C 39.300781 78.820312 40.640625 81.027344 38.175781 82.09375 C 34.90625 81.238281 36.75 77.257812 37.125 75.449219 C 38.699219 67.871094 41.171875 61.53125 44.132812 55.15625 C 48.210938 46.359375 53.789062 38.359375 58.484375 31.371094 C 61.222656 30.496094 62.054688 27.707031 63.738281 25.769531 C 64.203125 25.769531 64.667969 25.769531 65.132812 25.769531 " fill-opacity="1" fill-rule="evenodd"/><path fill="#040606" d="M 291.296875 36.269531 C 293.191406 36.675781 293.300781 38.992188 294.09375 40.464844 C 294.816406 41.808594 296.058594 42.917969 296.898438 44.3125 C 298.585938 47.128906 299.394531 50.828125 300.75 54.109375 C 302.058594 57.304688 303.238281 60.660156 304.246094 64.257812 C 305.914062 70.195312 307.519531 74.269531 308.101562 81.746094 C 308.316406 84.609375 308.03125 87.941406 308.101562 90.84375 C 308.148438 93.304688 309.1875 96.796875 306.699219 97.835938 C 303.765625 96.921875 304.945312 92.765625 304.945312 90.492188 C 304.945312 85.011719 305.097656 79.082031 304.246094 74.402344 C 303.644531 71.109375 302.027344 67.921875 301.097656 64.605469 C 300.132812 61.160156 299.191406 57.902344 297.945312 54.808594 C 296.695312 51.703125 295.78125 48.472656 294.09375 45.714844 C 292.449219 43.027344 289.75 40.683594 289.890625 37.316406 C 290.558594 37.277344 290.132812 36.160156 290.945312 36.269531 C 291.058594 36.269531 291.171875 36.269531 291.296875 36.269531 " fill-opacity="1" fill-rule="evenodd"/><path fill="#040606" d="M 313.351562 61.105469 C 316.417969 61.859375 314.894531 66.464844 315.101562 69.5 C 315.199219 70.914062 315.691406 72.617188 315.800781 74.046875 C 316.054688 77.355469 316.628906 81.574219 314.402344 82.792969 C 311.921875 81.90625 313.175781 78.542969 313 76.144531 C 312.644531 71.179688 311.027344 64.613281 313.351562 61.105469 " fill-opacity="1" fill-rule="evenodd"/><path fill="#040606" d="M 365.160156 158.359375 C 368.902344 158.105469 365.703125 162.804688 365.160156 164.304688 C 364.046875 167.398438 364.082031 169.304688 363.414062 171.304688 C 362.21875 174.894531 360.21875 178.425781 358.859375 182.148438 C 358.144531 184.113281 357.894531 186.1875 357.109375 188.09375 C 353.578125 196.710938 349.121094 205.546875 343.804688 213.285156 C 341.667969 216.394531 340.066406 219.820312 337.855469 222.726562 C 335.675781 225.601562 332.84375 228.058594 330.503906 230.777344 C 328.097656 233.570312 325.414062 235.902344 322.804688 238.472656 C 320.472656 240.761719 318.714844 245.183594 314.75 244.769531 C 313.644531 242.621094 315.726562 240.921875 317.203125 240.21875 C 334.871094 224.378906 347.609375 205.046875 356.761719 180.398438 C 357.398438 178.6875 357.851562 176.898438 358.511719 175.152344 C 360.265625 170.53125 361.960938 164.480469 364.109375 159.40625 C 364.304688 158.902344 364.65625 158.554688 365.160156 158.359375 " fill-opacity="1" fill-rule="evenodd"/><path fill="#040606" d="M 371.46875 188.445312 C 374.964844 190.707031 371.160156 195.625 370.0625 197.894531 C 365.730469 206.851562 359.21875 214.71875 353.257812 222.03125 C 349.242188 226.957031 345.144531 232.234375 340.660156 236.722656 C 338.433594 238.945312 335.921875 241.109375 333.652344 243.367188 C 331.660156 245.367188 329.722656 249.085938 326.300781 248.621094 C 325 246.851562 327.125 245.738281 328.058594 244.769531 C 335.089844 237.414062 342.746094 230.453125 349.414062 222.03125 C 354.804688 215.210938 360.851562 208.457031 365.519531 200.34375 C 367.535156 196.820312 369.015625 193.582031 370.421875 189.496094 C 370.355469 188.734375 370.703125 188.382812 371.46875 188.445312 " fill-opacity="1" fill-rule="evenodd"/><path fill="#040606" d="M 355.363281 236.375 C 354.632812 239.609375 352.226562 242.382812 350.113281 245.117188 C 346.527344 249.734375 343.042969 254.429688 337.855469 257.714844 C 335.929688 258.933594 332.992188 261.210938 330.503906 259.8125 C 331.300781 256.410156 334.824219 256.214844 337.15625 254.566406 C 341.285156 251.644531 345.195312 246.414062 348.707031 241.96875 C 350.328125 239.925781 351.429688 238.636719 352.5625 236.023438 C 352.679688 235.566406 353.179688 235.472656 353.257812 234.976562 C 353.609375 234.976562 353.960938 234.976562 354.316406 234.976562 C 354.660156 235.4375 354.886719 236.027344 355.363281 236.375 " fill-opacity="1" fill-rule="evenodd"/><path fill="#040606" d="M 156.511719 196.144531 C 156.75 195.453125 157.441406 195.207031 158.261719 195.089844 C 159.894531 195.34375 159.894531 194.492188 158.261719 194.742188 C 155.652344 195.246094 153.167969 193.777344 151.261719 194.742188 C 153.371094 194.847656 154.71875 195.714844 156.511719 196.144531 Z M 163.511719 194.042969 C 164.113281 194.0625 164.40625 193.773438 164.558594 193.34375 C 164.011719 193.375 163.351562 193.292969 163.511719 194.042969 Z M 147.757812 192.644531 C 148.359375 191.199219 146.171875 190.769531 145.660156 191.59375 C 146.394531 191.90625 146.691406 192.660156 147.757812 192.644531 Z M 157.5625 189.847656 C 156.441406 187.242188 152.78125 188.734375 150.210938 188.445312 C 146.910156 188.074219 143.515625 186.332031 141.109375 187.042969 C 145.878906 188.6875 152.3125 188.675781 157.5625 189.847656 Z M 138.304688 182.847656 C 141.6875 183.539062 146.214844 184.839844 150.210938 185.296875 C 151.761719 185.472656 153.992188 185.65625 155.105469 184.949219 C 154.605469 184.515625 154.449219 183.746094 154.40625 182.847656 C 149.203125 184.871094 142.804688 180.871094 137.605469 181.800781 C 138.097656 181.890625 138.003906 182.5625 138.304688 182.847656 Z M 135.855469 177.601562 C 141.097656 179.007812 148.246094 180.375 153.710938 180.398438 C 153.136719 178.550781 150.941406 179.027344 149.507812 178.648438 C 144.855469 177.433594 139.988281 175.917969 135.855469 174.453125 C 135.832031 174.238281 135.800781 174.039062 135.507812 174.101562 C 135.296875 175.589844 135.757812 176.414062 135.855469 177.601562 Z M 134.453125 170.25 C 139.457031 173.179688 146.097656 174.476562 152.3125 176.203125 C 152.207031 174.554688 151.722656 173.289062 151.261719 172.003906 C 151.058594 172.851562 149.9375 172.777344 149.15625 173.050781 C 146.585938 172.414062 143.535156 171.84375 140.757812 170.953125 C 138.507812 170.230469 134.628906 169.589844 134.804688 166.40625 C 140.292969 166.296875 144.921875 170.050781 151.261719 170.25 C 151.246094 168.398438 148.976562 168.558594 147.757812 168.152344 C 143.242188 166.660156 137.710938 165.390625 134.105469 163.609375 C 134.039062 166.003906 134.085938 168.289062 134.453125 170.25 Z M 134.105469 160.109375 C 139.03125 162.648438 144.65625 164.488281 150.90625 165.707031 C 150.796875 164.882812 150.355469 164.390625 150.558594 163.257812 C 144.277344 162.535156 139.988281 159.828125 134.105469 158.707031 C 134.105469 159.175781 134.105469 159.644531 134.105469 160.109375 Z M 134.105469 155.558594 C 139.765625 156.675781 145.390625 159.660156 150.558594 160.109375 C 151.148438 157.910156 148.660156 157.8125 147.40625 157.3125 C 142.863281 155.488281 137.890625 154.660156 134.453125 152.414062 C 134.433594 152.199219 134.402344 151.996094 134.105469 152.058594 C 133.640625 153.085938 134.328125 153.867188 134.105469 155.558594 Z M 134.105469 149.265625 C 139.304688 151.179688 144.089844 153.507812 149.855469 154.863281 C 149.855469 153.929688 149.855469 152.992188 149.855469 152.058594 C 144.238281 150.445312 139.5 147.949219 134.105469 146.113281 C 134.105469 147.164062 134.105469 148.214844 134.105469 149.265625 Z M 134.105469 142.964844 C 139.660156 144.636719 144.265625 147.273438 149.855469 148.914062 C 149.855469 148.214844 149.855469 147.515625 149.855469 146.816406 C 144.808594 144.28125 139.785156 141.722656 134.453125 139.46875 C 134.523438 140.816406 134.464844 142.042969 134.105469 142.964844 Z M 142.507812 139.121094 C 139.898438 137.917969 137.816406 136.066406 135.15625 135.269531 C 135.078125 134.84375 134.765625 135.050781 134.453125 135.269531 C 134.453125 135.617188 134.453125 135.964844 134.453125 136.320312 C 138.441406 137.753906 142.824219 139.84375 146.359375 141.570312 C 147.300781 142.027344 148.839844 143.917969 149.855469 142.617188 C 148 140.605469 144.921875 140.226562 142.507812 139.121094 Z M 135.507812 132.472656 C 140.214844 133.480469 144.726562 137.714844 150.558594 138.769531 C 150.40625 137.5625 150.695312 136.808594 150.90625 135.964844 C 145.390625 134.015625 140.839844 131.105469 135.507812 128.972656 C 135.765625 130.195312 134.441406 131.613281 135.507812 132.472656 Z M 135.507812 125.476562 C 140.707031 127.855469 145.554688 130.589844 150.90625 132.820312 C 152.28125 130.503906 150.058594 130.132812 148.804688 129.324219 C 144.796875 126.722656 140.082031 124.835938 136.554688 122.675781 C 136.535156 122.464844 136.5 122.261719 136.207031 122.324219 C 135.855469 123.261719 135.480469 124.167969 135.507812 125.476562 Z M 136.554688 119.175781 C 141.863281 121.804688 146.546875 125.054688 151.960938 127.570312 C 151.699219 126.503906 152.5625 126.542969 152.3125 125.476562 C 147.480469 122.257812 142.382812 119.300781 137.253906 116.378906 C 137.066406 117.359375 136.742188 118.199219 136.554688 119.175781 Z M 152.3125 119.527344 C 148.960938 115.878906 144.472656 113.367188 140.40625 110.429688 C 140.054688 110.429688 139.707031 110.429688 139.355469 110.429688 C 138.921875 111.398438 138.335938 112.210938 138.304688 113.578125 C 143.605469 116.210938 148.074219 119.679688 153.359375 122.324219 C 153.828125 121.511719 153.9375 120.335938 154.40625 119.527344 C 153.710938 119.527344 153.007812 119.527344 152.3125 119.527344 Z M 159.308594 106.933594 C 157.617188 106.632812 155.902344 104.523438 154.757812 104.832031 C 156.253906 105.289062 158.121094 108.429688 159.308594 106.933594 Z M 140.757812 107.632812 C 144.609375 108.238281 147.59375 111.140625 150.210938 112.878906 C 150.855469 113.3125 151.351562 113.875 151.960938 114.277344 C 152.863281 114.878906 155.132812 116.441406 155.460938 115.332031 C 156.132812 113.71875 153.917969 113.214844 153.007812 112.53125 C 149.511719 109.902344 145.992188 107.210938 143.207031 104.484375 C 142.757812 104.464844 142.71875 104.035156 142.15625 104.136719 C 141.796875 105.40625 141.050781 106.296875 140.757812 107.632812 Z M 144.253906 100.632812 C 144.226562 100.148438 143.363281 100.269531 143.554688 100.988281 C 143.191406 101.003906 143.28125 101.433594 143.902344 101.335938 C 147.140625 103.925781 150.496094 107.050781 153.710938 109.378906 C 154.789062 110.167969 156.144531 111.585938 157.5625 111.128906 C 153.570312 107.191406 149.113281 103.710938 144.253906 100.632812 Z M 168.066406 100.988281 C 166.527344 103.519531 165.113281 107.015625 163.511719 110.429688 C 162.039062 113.5625 160.695312 117.117188 159.660156 120.578125 C 157.476562 127.871094 155.472656 135.824219 155.105469 144.015625 C 154.835938 150.214844 155.289062 156.652344 155.8125 162.90625 C 156.609375 172.527344 158.367188 183.015625 163.511719 187.746094 C 166.089844 187.863281 168.699219 187.382812 170.160156 187.398438 C 173.851562 181.335938 172.570312 173.957031 173.316406 165.359375 C 173.539062 162.742188 174.414062 160.117188 174.714844 157.3125 C 175.042969 154.257812 174.71875 150.96875 175.066406 147.863281 C 175.234375 146.320312 175.976562 144.878906 176.113281 143.316406 C 176.257812 141.753906 175.933594 140.019531 176.113281 138.417969 C 176.578125 134.34375 177.949219 130.171875 178.214844 126.175781 C 178.453125 122.636719 177.675781 119.117188 178.214844 116.027344 C 178.476562 114.515625 179.714844 113.109375 179.964844 111.480469 C 180.8125 106.035156 180.019531 100.582031 178.214844 96.089844 C 172.964844 94.828125 170.085938 97.636719 168.066406 100.988281 Z M 157.910156 100.988281 C 155.398438 99.257812 153.121094 97.1875 150.558594 95.738281 C 149.40625 95.085938 147.667969 94.160156 146.359375 94.339844 C 146.34375 94.820312 146.523438 95.105469 146.710938 95.390625 C 150.464844 97.324219 153.917969 100.605469 157.210938 102.734375 C 158.214844 103.382812 159.839844 104.40625 161.058594 104.136719 C 161.140625 103.863281 161.074219 103.445312 161.410156 103.4375 C 160.867188 102.011719 159.082031 101.792969 157.910156 100.988281 Z M 152.660156 93.285156 C 151.554688 92.757812 150.953125 91.730469 149.507812 91.539062 C 149.800781 92.65625 152.167969 93.53125 152.660156 93.285156 Z M 167.363281 92.589844 C 166.21875 92.207031 164.894531 90.175781 163.863281 90.84375 C 165.105469 91.121094 166.472656 93.117188 167.363281 92.589844 Z M 155.105469 90.84375 C 154.390625 90.507812 154.8125 89.039062 153.710938 89.089844 C 153.105469 89.070312 152.816406 89.363281 152.660156 89.792969 C 156.566406 92.296875 160.03125 95.253906 164.210938 97.484375 C 161.648438 94.796875 159.488281 91.714844 155.105469 90.84375 Z M 157.5625 82.445312 C 160.972656 81.972656 170.824219 81.605469 174.714844 83.496094 C 178.949219 85.546875 184.59375 94.09375 185.566406 100.632812 C 185.890625 102.8125 185.890625 107.71875 185.566406 111.128906 C 185.339844 113.515625 184.089844 115.691406 183.820312 117.78125 C 183.496094 120.230469 184.019531 122.886719 183.820312 125.476562 C 183.074219 134.925781 180.722656 145.03125 179.964844 155.558594 C 179.722656 158.941406 179.105469 162.359375 178.917969 165.707031 C 178.742188 168.757812 179.160156 171.699219 178.917969 174.800781 C 178.46875 180.351562 176.84375 186.351562 174.363281 190.546875 C 171.226562 195.84375 165.863281 200.621094 161.765625 201.390625 C 156.011719 202.460938 148.320312 199.730469 144.609375 197.539062 C 137.949219 193.625 131.394531 183.769531 129.554688 173.753906 C 127.28125 161.367188 128.605469 142.332031 129.902344 129.324219 C 130.746094 120.878906 131.65625 114.355469 134.453125 107.984375 C 135.3125 106.03125 136.5 104.246094 137.253906 102.386719 C 139.117188 97.824219 140.4375 93.140625 142.507812 90.492188 C 144.929688 87.386719 152.035156 83.207031 157.5625 82.445312 " fill-opacity="1" fill-rule="evenodd"/><g clip-path="url(#ddc1aaf533)"><path fill="#040606" d="M 280.445312 246.171875 C 281.242188 246.265625 281.757812 246.085938 281.839844 245.46875 C 281.046875 245.371094 280.523438 245.554688 280.445312 246.171875 Z M 134.105469 240.921875 C 130.367188 241.152344 125.703125 240.457031 122.546875 241.273438 C 125.539062 242.40625 130.96875 241.765625 134.105469 240.921875 Z M 284.644531 241.96875 C 288.027344 239.988281 293.5 240.089844 296.546875 237.769531 C 293.304688 239.667969 285.425781 238.785156 284.644531 241.96875 Z M 118.699219 239.171875 C 118.882812 238.652344 119.214844 238.292969 119.402344 237.769531 C 118.566406 237.988281 116.859375 237.332031 116.597656 238.125 C 117.335938 238.433594 117.632812 239.191406 118.699219 239.171875 Z M 113.445312 235.675781 C 114.273438 235.78125 114.097656 236.890625 115.199219 236.722656 C 115.085938 235.910156 115.253906 235.378906 115.550781 234.976562 C 114.621094 234.980469 113.484375 234.78125 113.445312 235.675781 Z M 126.402344 232.175781 C 125.5 231.894531 123.011719 231.390625 122.199219 232.175781 C 123.691406 231.871094 125.304688 233.246094 126.402344 232.175781 Z M 110.996094 232.527344 C 111.996094 231.660156 114.824219 232.617188 115.898438 231.824219 C 116.484375 231.824219 117.066406 231.824219 117.648438 231.824219 C 118.242188 231.902344 118.515625 231.429688 117.648438 231.476562 C 114.695312 231.742188 112.824219 230.933594 109.945312 231.125 C 109.886719 232 110.484375 232.222656 110.996094 232.527344 Z M 293.042969 230.777344 C 292.660156 232.023438 291.554688 232.550781 291.296875 233.921875 C 295.492188 232.636719 300.28125 231.941406 303.546875 229.722656 C 303.617188 229.285156 304.09375 229.011719 303.195312 229.027344 C 300.34375 230.136719 296.96875 230.730469 293.042969 230.777344 Z M 107.148438 228.675781 C 109.363281 227.972656 112.785156 228.476562 115.550781 228.328125 C 117.199219 228.832031 118.433594 228.933594 119.402344 228.675781 C 119.804688 228.570312 117.628906 228.066406 115.898438 228.328125 C 112.992188 227.730469 108.355469 227.011719 105.746094 227.277344 C 106.363281 227.589844 106.832031 228.058594 107.148438 228.675781 Z M 301.441406 226.578125 C 303.78125 225.648438 306.824219 225.421875 308.449219 223.777344 C 306.125 224.488281 302.335938 225.597656 301.441406 226.578125 Z M 298.644531 224.125 C 301.089844 223.308594 303.441406 222.394531 305.644531 221.328125 C 303.066406 222.015625 299.132812 221.355469 298.644531 224.125 Z M 102.59375 223.429688 C 107.875 224.097656 112.859375 225.066406 118.699219 225.179688 C 117.980469 222.4375 115.921875 222.585938 112.746094 222.378906 C 109.007812 222.140625 103.515625 221.058594 101.195312 221.328125 C 101.136719 222.558594 102.378906 222.484375 102.59375 223.429688 Z M 311.601562 219.582031 C 312.203125 219.597656 312.496094 219.308594 312.652344 218.882812 C 312.046875 218.863281 311.75 219.152344 311.601562 219.582031 Z M 302.847656 218.882812 C 304.449219 218.03125 307.140625 218.273438 308.449219 217.132812 C 306.847656 217.75 301.816406 216.792969 302.847656 218.882812 Z M 99.09375 218.53125 C 103.746094 217.578125 108.476562 219.359375 113.445312 219.230469 C 112.832031 217.355469 109.867188 216.824219 107.847656 216.433594 C 103.816406 215.652344 98.65625 215.632812 95.589844 214.335938 C 96.488281 216.003906 97.550781 217.511719 99.09375 218.53125 Z M 196.417969 214.335938 C 196.433594 213.734375 196.148438 213.4375 195.71875 213.285156 C 195.703125 213.882812 195.988281 214.179688 196.417969 214.335938 Z M 197.46875 210.136719 C 197.695312 211.425781 199.332031 213.003906 200.273438 211.539062 C 199.210938 211.253906 198.761719 209.101562 197.46875 210.136719 Z M 305.644531 211.886719 C 305.210938 212.730469 304.785156 213.582031 304.59375 214.683594 C 309.511719 214.167969 313.5 211.800781 317.546875 210.484375 C 318.25 210.257812 319.207031 211.246094 319.304688 209.785156 C 319.652344 209.78125 319.742188 209.171875 319.304688 209.085938 C 315.277344 210.550781 310.1875 210.945312 305.644531 211.886719 Z M 93.496094 211.886719 C 97.730469 210.40625 103.722656 214.269531 108.550781 213.285156 C 103.589844 210.886719 96.945312 210.183594 92.09375 207.6875 C 91.875 207.707031 91.675781 207.738281 91.742188 208.035156 C 92.371094 209.273438 93.085938 210.421875 93.496094 211.886719 Z M 202.71875 209.4375 C 203.425781 208.457031 200.636719 206.503906 199.921875 206.988281 C 201.109375 207.550781 201.21875 209.191406 202.71875 209.4375 Z M 205.175781 206.636719 C 204.507812 205.421875 202.449219 203.773438 201.667969 203.839844 C 202.867188 204.742188 203.980469 205.734375 205.175781 206.636719 Z M 322.445312 203.136719 C 318.488281 204.320312 313.375 204.953125 310.199219 206.289062 C 309.132812 206.734375 307.058594 206.894531 307.050781 208.386719 C 311.742188 208.289062 317.722656 206.460938 322.445312 205.234375 C 322.496094 204.585938 322.683594 204.066406 323.15625 203.839844 C 323.113281 203.410156 323.050781 203.011719 322.445312 203.136719 Z M 90.695312 204.886719 C 90.746094 204.125 91.574219 204.136719 92.445312 204.1875 C 96.152344 206.78125 102.894531 208.199219 107.148438 209.085938 C 102.800781 203.632812 94.777344 201.855469 88.242188 198.589844 C 88.027344 198.609375 87.828125 198.644531 87.890625 198.941406 C 89.253906 200.496094 89.273438 203.390625 90.695312 204.886719 Z M 202.71875 200.34375 C 204.335938 201.519531 205.417969 203.242188 207.621094 203.839844 C 209.132812 201.390625 204.855469 199.9375 203.417969 198.242188 C 203.515625 199.265625 202.628906 199.316406 202.71875 200.34375 Z M 312.304688 200.691406 C 311.140625 201.191406 308.953125 201.214844 309.148438 203.136719 C 314.027344 202.261719 319.292969 200.042969 324.554688 200.691406 C 324.488281 199.328125 326.429688 198.15625 325.601562 197.191406 C 321.414062 198.550781 315.902344 199.136719 312.304688 200.691406 Z M 207.621094 197.894531 C 208.808594 198.335938 208.945312 199.832031 210.425781 199.988281 C 210.371094 199.121094 210.972656 198.910156 211.125 198.242188 C 210.171875 198.023438 210.257812 196.78125 209.019531 196.839844 C 209.175781 197.808594 207.71875 197.171875 207.621094 197.894531 Z M 312.652344 194.394531 C 312.605469 195.746094 311.464844 196.007812 311.601562 197.539062 C 315.285156 195.878906 320.640625 196.03125 324.554688 194.742188 C 326.277344 194.171875 328.570312 192.863281 329.105469 191.242188 C 323.328125 192 318.25 193.460938 312.652344 194.394531 Z M 204.824219 193.34375 C 205.484375 193.421875 205.597656 192.949219 206.222656 192.996094 C 206.070312 192.101562 205.726562 191.386719 205.175781 190.894531 C 205.453125 192.109375 204.644531 192.238281 204.824219 193.34375 Z M 85.792969 193.691406 C 87.8125 193.425781 87.902344 195.085938 88.941406 195.792969 C 94.085938 197.761719 99.152344 199.816406 103.648438 202.4375 C 102.484375 198.433594 98.273438 197.175781 94.890625 195.445312 C 91.351562 193.625 87.769531 191.65625 84.738281 189.496094 C 84.527344 189.511719 84.324219 189.546875 84.390625 189.847656 C 84.941406 191.046875 85.4375 192.300781 85.792969 193.691406 Z M 315.796875 187.746094 C 315.578125 189.042969 314.816406 189.792969 314.402344 190.894531 C 319.871094 190.679688 325.644531 187.316406 330.503906 188.796875 C 330.722656 187.496094 331.339844 186.597656 331.550781 185.296875 C 326.421875 185.894531 320.691406 189.195312 315.796875 187.746094 Z M 82.640625 184.25 C 87.984375 188.703125 94.582031 191.90625 101.195312 195.089844 C 101.039062 193.964844 100.523438 193.199219 100.492188 191.941406 C 94.054688 189.050781 88.929688 184.84375 82.292969 182.148438 C 82.285156 182.976562 82.894531 183.179688 82.640625 184.25 Z M 236.675781 176.550781 C 237.621094 176.347656 238.871094 177.585938 239.480469 176.550781 C 239.203125 176.476562 239.074219 176.261719 239.128906 175.851562 C 238.503906 176.277344 237.089844 175.914062 236.675781 176.550781 Z M 321.398438 175.851562 C 320.023438 178.792969 317.15625 182.097656 317.546875 185.648438 C 322.757812 183.15625 331.738281 184.433594 334.355469 179.351562 C 329.847656 179.976562 325.820312 181.082031 321.398438 181.800781 C 321.089844 181.175781 320.421875 180.910156 320.699219 179.699219 C 323.507812 177.742188 329.015625 177.28125 332.253906 176.550781 C 333.421875 176.289062 335.601562 176.738281 335.753906 175.152344 C 331.503906 174.527344 325.941406 175.609375 321.398438 175.851562 Z M 232.832031 174.804688 C 233.066406 174.804688 233.292969 174.804688 233.53125 174.804688 C 233.53125 174.570312 233.53125 174.335938 233.53125 174.101562 C 233.292969 174.101562 233.066406 174.101562 232.832031 174.101562 C 232.832031 174.335938 232.832031 174.570312 232.832031 174.804688 Z M 235.625 170.953125 C 237.75 170.898438 238.457031 171.054688 238.78125 170.953125 C 238.082031 171.164062 231.082031 170.066406 229.328125 170.601562 C 229.117188 170.625 228.914062 170.65625 228.976562 170.953125 C 230.277344 172.257812 233.53125 171.015625 235.625 170.953125 Z M 323.507812 170.601562 C 323.59375 171.628906 322.707031 171.679688 322.804688 172.703125 C 327.675781 172.328125 332.925781 172.320312 337.152344 171.304688 C 337.152344 170.488281 337.152344 169.671875 337.152344 168.855469 C 331.976562 168.679688 326.84375 170.078125 323.507812 170.601562 Z M 228.277344 167.457031 C 232.59375 167.222656 237.84375 167.917969 241.578125 167.105469 C 238.042969 165.972656 231.269531 166.21875 227.230469 166.753906 C 227.78125 166.789062 227.5 167.648438 228.277344 167.457031 Z M 81.238281 178.296875 C 86.574219 180.742188 92.691406 183.9375 97.34375 186.695312 C 97.78125 186.957031 98.558594 188.65625 99.09375 187.398438 C 99.039062 185.46875 98.335938 184.1875 98.046875 182.496094 C 93.308594 179.414062 87.558594 176.886719 83.339844 173.753906 C 81.902344 172.683594 79.582031 171.453125 79.839844 169.207031 C 83.324219 168.289062 85.429688 171.929688 87.890625 173.40625 C 90.734375 175.101562 93.753906 176.367188 96.644531 177.949219 C 96.625 176.222656 95.617188 175.480469 95.589844 173.753906 C 90.128906 170.472656 84.203125 167.644531 78.4375 164.65625 C 78.933594 169.644531 80.183594 173.875 81.238281 178.296875 Z M 231.78125 161.15625 C 229.808594 161.160156 226.875 161.457031 226.179688 162.554688 C 228.628906 163.847656 234.730469 163.335938 237.734375 162.910156 C 236.664062 161.570312 234.285156 161.152344 231.78125 161.15625 Z M 326.652344 160.109375 C 326.015625 162.28125 324.59375 165.503906 324.902344 167.457031 C 326.609375 166.820312 329.371094 166.265625 332.253906 166.058594 C 334.878906 165.867188 338.96875 167.222656 338.910156 163.957031 C 334.667969 162.640625 328.171875 167.050781 327.347656 162.554688 C 328.707031 161.136719 332.4375 161.113281 335.40625 160.808594 C 337.316406 160.609375 340.300781 161.628906 340.308594 159.058594 C 335.355469 159.015625 331 159.554688 326.652344 160.109375 Z M 80.191406 162.207031 C 84.171875 164.710938 89.167969 166.539062 92.445312 168.152344 C 87.75 164.679688 82.429688 161.835938 77.390625 158.707031 C 76.863281 160.820312 78.949219 161.429688 80.191406 162.207031 Z M 229.675781 156.609375 C 227.917969 156.636719 224.546875 156.691406 224.777344 158.359375 C 226.585938 159.449219 231.683594 158.132812 234.578125 158.011719 C 234.144531 156.371094 231.855469 156.574219 229.675781 156.609375 Z M 327.699219 156.957031 C 331.65625 156.242188 336.105469 156.035156 340.660156 155.910156 C 340.871094 155.074219 341.164062 154.316406 341.007812 153.113281 C 336.367188 154.191406 328.933594 152.480469 327.699219 156.957031 Z M 76.691406 154.160156 C 80.933594 157.414062 86.980469 161.296875 91.390625 163.957031 C 91.535156 164.042969 93.003906 165.363281 93.144531 164.304688 C 93.03125 163.484375 92.589844 162.992188 92.792969 161.859375 C 88.175781 158.3125 82.660156 155.65625 77.390625 152.761719 C 76.976562 152.816406 76.398438 152.703125 76.339844 153.113281 C 76.746094 153.167969 76.714844 153.664062 76.691406 154.160156 Z M 227.925781 152.761719 C 226.148438 152.871094 224 152.65625 223.726562 153.464844 C 223.984375 155.007812 226.132812 153.878906 227.578125 153.8125 C 229.148438 153.738281 231.683594 154.425781 232.128906 153.113281 C 231.503906 151.625 229.398438 152.667969 227.925781 152.761719 Z M 223.375 150.664062 C 224.546875 149.039062 228.675781 150.363281 230.023438 148.914062 C 227.824219 148.320312 225.316406 148.019531 222.328125 148.214844 C 222.597656 149.109375 222.675781 150.195312 223.375 150.664062 Z M 81.941406 151.710938 C 84.296875 152.894531 86.363281 154.523438 88.242188 154.863281 C 84.105469 152.460938 80.347656 149.683594 75.992188 147.515625 C 76.261719 150.234375 79.875 150.675781 81.941406 151.710938 Z M 329.457031 151.359375 C 333.375 150.621094 337.882812 150.460938 342.054688 149.964844 C 342.054688 149.03125 342.054688 148.097656 342.054688 147.167969 C 338.363281 147.4375 335.671875 148.714844 331.902344 148.914062 C 330.414062 148.417969 332.40625 146.027344 330.503906 146.464844 C 330.527344 148.46875 329.503906 149.433594 329.457031 151.359375 Z M 221.28125 145.066406 C 224.113281 145.144531 227.449219 144.726562 229.328125 145.765625 C 229.335938 144.9375 228.726562 144.734375 228.976562 143.664062 C 226.855469 142.867188 222.976562 141.972656 220.570312 142.617188 C 221.09375 143.148438 221.140625 144.152344 221.28125 145.066406 Z M 331.550781 142.96875 C 332.691406 142.683594 334.148438 142.789062 335.40625 142.617188 C 338.070312 142.25 341.234375 142.136719 342.40625 140.515625 C 338.59375 141.144531 333.714844 140.691406 331.550781 142.96875 Z M 75.289062 144.015625 C 77.820312 144.902344 80.921875 146.46875 83.691406 148.214844 C 86.519531 149.996094 88.957031 152.652344 91.742188 153.113281 C 89.789062 151.792969 87.21875 149.835938 83.691406 147.515625 C 80.714844 145.558594 73.136719 142.960938 76.691406 140.167969 C 79.234375 141.378906 81.957031 142.832031 84.390625 144.367188 C 86.835938 145.90625 88.828125 148.21875 91.390625 148.5625 C 87.128906 143.84375 81.023438 140.964844 75.289062 137.71875 C 75.289062 139.816406 75.289062 141.914062 75.289062 144.015625 Z M 220.230469 138.773438 C 222.425781 139.597656 225.464844 139.597656 227.925781 140.167969 C 227.359375 136.648438 222.921875 137.007812 219.523438 136.320312 C 219.488281 137.40625 219.953125 137.992188 220.230469 138.773438 Z M 331.902344 137.019531 C 332.164062 135.640625 334.210938 136.0625 334.707031 134.921875 C 333.308594 135.027344 332.941406 134.109375 331.550781 134.222656 C 331.765625 135.058594 331.113281 136.761719 331.902344 137.019531 Z M 218.824219 133.171875 C 221.605469 133.074219 224.636719 134.585938 226.53125 134.222656 C 224.855469 132.164062 221.011719 132.269531 218.472656 131.074219 C 218.222656 132.144531 218.832031 132.34375 218.824219 133.171875 Z M 90.339844 138.066406 C 90.324219 135.636719 87.265625 134.535156 85.4375 133.523438 C 83.371094 132.375 80.878906 131.070312 79.136719 130.726562 C 83.058594 132.988281 86.527344 135.703125 90.339844 138.066406 Z M 75.636719 133.523438 C 77.015625 135.613281 79.03125 136.492188 81.238281 137.71875 C 83.496094 138.96875 85.820312 140.28125 87.890625 141.566406 C 88.941406 142.21875 90.363281 144.167969 90.695312 142.96875 C 90.195312 141.554688 88.679688 140.640625 87.542969 139.816406 C 86.363281 138.96875 84.910156 138.226562 83.691406 137.367188 C 81.285156 135.679688 78.128906 134.425781 76.691406 131.773438 C 76.480469 130.28125 78.167969 130.683594 78.789062 130.027344 C 77.804688 129.726562 77.351562 128.890625 75.992188 128.972656 C 76.257812 130.871094 75.554688 131.808594 75.636719 133.523438 Z M 217.773438 127.570312 C 220.351562 128.261719 222.496094 129.378906 225.125 130.027344 C 225.035156 128.25 224.53125 126.890625 224.074219 125.476562 C 221.894531 124.742188 219.628906 124.085938 217.074219 123.726562 C 217.089844 125.21875 217.546875 126.289062 217.773438 127.570312 Z M 76.339844 125.828125 C 81.558594 127.601562 85.511719 130.65625 90.339844 132.820312 C 90.097656 131.523438 90.941406 131.320312 90.695312 130.027344 C 86.621094 128.726562 83.746094 126.234375 79.839844 124.773438 C 79.335938 123.410156 78.546875 122.335938 76.691406 122.324219 C 76.804688 123.726562 76.066406 124.273438 76.339844 125.828125 Z M 216.378906 120.578125 C 217.875 120.601562 218.9375 121.042969 220.230469 121.277344 C 221.425781 120.886719 223.050781 123.027344 223.375 121.277344 C 222.027344 119.59375 218.796875 119.789062 217.074219 118.476562 C 216.726562 118.476562 216.378906 118.476562 216.027344 118.476562 C 216.019531 119.300781 216.628906 119.511719 216.378906 120.578125 Z M 77.390625 119.175781 C 80.703125 120.675781 84.835938 122.746094 87.890625 124.425781 C 88.671875 124.855469 89.882812 126.765625 90.695312 125.476562 C 91.046875 123.746094 88.835938 123.707031 87.890625 123.027344 C 84.875 120.863281 81.09375 118.195312 77.738281 116.726562 C 77.253906 117.179688 77.390625 118.246094 77.390625 119.175781 Z M 215.328125 114.277344 C 215.734375 114.339844 215.703125 114.828125 215.675781 115.332031 C 218.417969 115.617188 220.367188 116.703125 222.675781 117.433594 C 222.832031 116.226562 222.539062 115.46875 222.328125 114.632812 C 220.117188 114.683594 216.855469 112.636719 215.328125 114.277344 Z M 78.089844 113.582031 C 83.058594 115.492188 86.40625 119.03125 91.390625 120.925781 C 91.390625 119.644531 91.390625 118.359375 91.390625 117.082031 C 89.1875 116 86.867188 114.902344 84.738281 113.582031 C 82.804688 112.382812 80.066406 111.269531 79.136719 109.035156 C 81.292969 106.652344 83.695312 109.398438 85.4375 110.429688 C 87.683594 111.757812 89.980469 113.136719 92.09375 113.929688 C 91.296875 111.382812 88.460938 110.296875 86.492188 109.035156 C 84.296875 107.625 82.046875 105.96875 79.488281 105.183594 C 79.46875 104.972656 79.4375 104.769531 79.136719 104.835938 C 78.996094 107.957031 78.339844 110.570312 78.089844 113.582031 Z M 214.96875 110.78125 C 217.914062 110.53125 219.855469 111.269531 222.328125 111.480469 C 220.96875 108.519531 214.816406 110.355469 214.96875 105.886719 C 217.480469 104.75 219.472656 106.921875 221.628906 107.28125 C 222.097656 102.617188 215.777344 104.730469 213.570312 102.734375 C 213.914062 105.546875 214.394531 108.21875 214.96875 110.78125 Z M 79.839844 102.035156 C 84.898438 103.742188 88.4375 106.972656 92.792969 109.378906 C 93.6875 106.183594 89.601562 105.082031 87.542969 103.785156 C 85.117188 102.257812 82.8125 100.296875 80.535156 99.234375 C 80.519531 99.023438 80.488281 98.824219 80.191406 98.886719 C 79.601562 99.46875 79.910156 100.941406 79.839844 102.035156 Z M 213.570312 100.636719 C 215.777344 99.496094 219.320312 101.882812 220.929688 101.335938 C 218.394531 100.371094 216.117188 99.136719 213.222656 98.539062 C 213.425781 99.152344 212.800781 100.59375 213.570312 100.636719 Z M 217.074219 96.789062 C 217.082031 96.832031 220.742188 98.125 220.230469 97.136719 C 219.3125 96.679688 216.921875 96.082031 217.074219 96.789062 Z M 213.222656 96.441406 C 213.253906 95.886719 214.117188 96.164062 213.921875 95.390625 C 213.3125 95.417969 212.832031 95.308594 212.523438 95.039062 C 212.574219 95.691406 212.75 96.207031 213.222656 96.441406 Z M 80.535156 95.742188 C 85.355469 98.152344 88.992188 101.753906 93.84375 104.136719 C 94.234375 103.125 94.472656 101.964844 94.542969 100.636719 C 93.84375 100.636719 93.144531 100.636719 92.445312 100.636719 C 88.851562 97.925781 85.226562 95.253906 81.238281 92.941406 C 81.152344 94.015625 80.886719 94.914062 80.535156 95.742188 Z M 212.523438 93.285156 C 214.222656 91.480469 217.179688 93.832031 219.523438 93.640625 C 219.523438 92.941406 219.523438 92.238281 219.523438 91.542969 C 217.308594 90.246094 213.609375 90.457031 211.824219 88.742188 C 212.027344 90.289062 211.972656 92.09375 212.523438 93.285156 Z M 82.292969 89.792969 C 86.503906 92.695312 90.671875 95.640625 94.890625 98.539062 C 95.183594 97.664062 95.351562 96.664062 95.242188 95.390625 C 94.542969 95.390625 93.84375 95.390625 93.144531 95.390625 C 89.910156 92.671875 85.957031 90.671875 82.992188 87.695312 C 82.503906 88.136719 82.78125 89.34375 82.292969 89.792969 Z M 212.175781 87.695312 C 213.914062 85.839844 217.15625 87.90625 219.171875 88.042969 C 219.066406 87.21875 218.621094 86.726562 218.824219 85.59375 C 216.464844 84.574219 214.28125 83.367188 211.824219 82.449219 C 212.050781 84.082031 211.367188 86.632812 212.175781 87.695312 Z M 84.039062 85.246094 C 88.1875 87.984375 92.308594 90.746094 95.941406 93.992188 C 96.15625 93.152344 96.445312 92.394531 96.292969 91.191406 C 91.960938 88.757812 88.539062 85.414062 84.738281 82.449219 C 84.398438 83.269531 84.128906 84.164062 84.039062 85.246094 Z M 96.292969 84.898438 C 93.402344 82.316406 89.738281 80.535156 87.195312 78.246094 C 86.671875 77.839844 86.308594 77.839844 85.792969 78.246094 C 85.792969 78.597656 85.792969 78.945312 85.792969 79.296875 C 87.707031 80.644531 89.414062 82.585938 91.390625 84.191406 C 93.28125 85.726562 95.5 87.953125 98.046875 87.695312 C 98.535156 86.492188 97.042969 85.5625 96.292969 84.898438 Z M 211.824219 79.296875 C 214.53125 79.855469 216.238281 81.421875 218.824219 82.09375 C 218.207031 78.75 214.011719 78.976562 211.824219 77.195312 C 211.824219 77.894531 211.824219 78.597656 211.824219 79.296875 Z M 211.824219 74.046875 C 214.359375 74.890625 216.390625 76.25 218.824219 77.195312 C 218.273438 74.132812 214.71875 74.070312 212.871094 72.300781 C 212.523438 72.300781 212.175781 72.300781 211.824219 72.300781 C 211.824219 72.878906 211.824219 73.464844 211.824219 74.046875 Z M 86.84375 74.402344 C 91.359375 77.359375 95.21875 80.941406 99.792969 83.496094 C 99.792969 82.09375 100.492188 81.394531 100.492188 79.996094 C 95.699219 77.789062 91.90625 74.585938 87.542969 71.953125 C 87.289062 72.746094 87.230469 73.738281 86.84375 74.402344 Z M 211.824219 69.152344 C 213.179688 69.269531 214.449219 69.988281 215.675781 70.550781 C 216.867188 71.089844 218.351562 72.707031 218.824219 71.601562 C 216.621094 69.953125 214.417969 68.308594 211.824219 67.050781 C 211.824219 67.75 211.824219 68.449219 211.824219 69.152344 Z M 100.144531 74.046875 C 97.136719 71.3125 93.527344 69.117188 90.695312 66.703125 C 90.339844 66.703125 89.988281 66.703125 89.640625 66.703125 C 89.730469 67.726562 88.851562 67.773438 88.941406 68.800781 C 90.515625 70.648438 93.0625 71.960938 95.242188 73.347656 C 97.414062 74.726562 99.46875 76.9375 101.894531 76.847656 C 102.84375 75.355469 100.90625 74.742188 100.144531 74.046875 Z M 91.742188 64.253906 C 96.234375 66.644531 99.644531 70.121094 103.648438 73 C 103.980469 72.285156 104.363281 71.613281 104.695312 70.898438 C 100.558594 68.15625 97.476562 64.351562 92.445312 62.503906 C 92.703125 63.582031 91.480469 63.175781 91.742188 64.253906 Z M 94.890625 60.054688 C 99.171875 62.425781 102.550781 65.695312 106.445312 68.449219 C 106.996094 67.367188 107.875 66.617188 108.550781 65.648438 C 106.851562 64.597656 104.582031 62.957031 102.59375 61.457031 C 100.871094 60.148438 97.03125 58.605469 99.09375 55.859375 C 104.039062 57.332031 106.070312 61.71875 110.996094 63.207031 C 111.191406 62.699219 111.546875 62.347656 112.042969 62.15625 C 109.078125 58.476562 104.390625 56.511719 100.492188 53.757812 C 98.890625 56.117188 96.207031 57.40625 94.890625 60.054688 Z M 103.296875 52.007812 C 105.03125 53.289062 107.425781 54.332031 109.597656 55.859375 C 111.316406 57.066406 113.605469 60.632812 115.550781 58.304688 C 111.394531 56.046875 108.507812 52.511719 103.996094 50.609375 C 103.988281 51.304688 103.042969 51.050781 103.296875 52.007812 Z M 121.847656 53.410156 C 120.726562 51.492188 117.050781 50.277344 115.550781 49.910156 C 117.882812 50.847656 119.0625 52.929688 121.847656 53.410156 Z M 112.042969 52.355469 C 113.929688 53.773438 115.992188 55.390625 118.351562 56.207031 C 118.917969 54.933594 116.949219 54.632812 116.246094 54.109375 C 113.378906 51.96875 109.851562 50.042969 107.496094 47.8125 C 107.148438 47.8125 106.796875 47.8125 106.445312 47.8125 C 108.066406 49.574219 110.140625 50.929688 112.042969 52.355469 Z M 131.652344 44.664062 C 130.757812 44.933594 130.042969 43.292969 129.554688 44.308594 C 129.925781 44.5625 131.164062 45.679688 131.652344 44.664062 Z M 111.347656 45.011719 C 111.828125 45.023438 112.117188 44.84375 112.398438 44.664062 C 115.09375 45.816406 117.546875 47.210938 120.101562 48.511719 C 119.050781 47.339844 115.429688 45.71875 113.445312 44.308594 C 112.964844 44.097656 113.394531 42.964844 112.746094 42.914062 C 112.152344 44.277344 109.050781 44.683594 109.945312 46.410156 C 111.214844 46.746094 110.242188 44.839844 111.347656 45.011719 Z M 114.851562 41.859375 C 115.328125 41.851562 115.617188 42.027344 115.898438 42.214844 C 115.898438 41.859375 115.898438 41.511719 115.898438 41.164062 C 115.667969 41.164062 115.429688 41.164062 115.199219 41.164062 C 115.199219 41.511719 114.914062 41.582031 114.851562 41.859375 Z M 119.050781 39.414062 C 119.890625 39.628906 120.644531 39.914062 121.847656 39.765625 C 122.179688 37.4375 119.335938 37.875 119.050781 39.414062 Z M 138.304688 40.816406 C 136.605469 40.265625 133.351562 36.859375 133.050781 37.316406 C 134.816406 38.242188 136.101562 41.492188 138.304688 40.816406 Z M 153.359375 34.519531 C 151.636719 34.007812 149.570312 32.011719 148.109375 32.417969 C 149.785156 32.960938 151.335938 35.480469 153.359375 34.519531 Z M 136.207031 33.464844 C 137 33.53125 138.246094 32.285156 137.605469 32.070312 C 137.460938 32.863281 135.554688 31.882812 136.207031 33.464844 Z M 140.054688 32.765625 C 140.40625 31.601562 139.570312 31.625 138.652344 31.71875 C 138.546875 32.640625 139.382812 32.621094 140.054688 32.765625 Z M 191.515625 70.199219 C 191.160156 70.429688 190.046875 70.605469 189.417969 70.898438 C 185.769531 72.625 185.644531 70.175781 184.167969 68.101562 C 183.195312 66.75 182.183594 65.617188 180.664062 64.953125 C 177.386719 63.527344 170.714844 62.765625 167.011719 62.503906 C 156.910156 61.78125 151.339844 63.636719 144.605469 66.703125 C 142.796875 67.523438 141.046875 68.898438 139.355469 69.851562 C 137.277344 71.019531 135.058594 71.679688 133.75 72.652344 C 131.261719 74.5 128.785156 77.894531 126.402344 81.046875 C 124.203125 83.953125 121.277344 86.851562 119.402344 89.792969 C 114.3125 97.753906 110.441406 109.535156 108.898438 121.277344 C 107.175781 134.328125 106.09375 148.84375 107.148438 161.859375 C 107.574219 167.15625 109.203125 173.613281 110.996094 179.699219 C 112.648438 185.308594 114.636719 191.417969 116.945312 195.792969 C 119.304688 200.257812 122.644531 203.601562 126.050781 207.335938 C 128.550781 210.078125 131.691406 213.078125 134.105469 214.683594 C 140.457031 218.914062 152.132812 220.851562 161.765625 221.328125 C 166.941406 221.589844 169.675781 220.707031 174.015625 219.582031 C 182.738281 217.316406 186.597656 215.832031 191.515625 209.785156 C 195.0625 205.433594 198.769531 198.253906 199.574219 192.296875 C 200.296875 186.878906 197.847656 179.265625 203.769531 179.699219 C 206.457031 179.894531 206.953125 183.15625 208.320312 185.648438 C 212.035156 192.398438 214.132812 194.160156 220.570312 198.242188 C 223.714844 200.234375 227.058594 201.957031 229.328125 202.4375 C 246.917969 206.160156 254.886719 195.164062 263.992188 187.042969 C 275.015625 177.210938 280.4375 164.390625 282.890625 147.167969 C 283.761719 141.039062 285.265625 134.914062 285.695312 129.324219 C 286.140625 123.355469 285.695312 116.636719 285.695312 110.082031 C 285.6875 103.441406 286.304688 96.398438 285.695312 90.492188 C 285.402344 87.675781 284.371094 84.378906 283.589844 81.394531 C 281.144531 72.019531 276.828125 64.8125 272.734375 57.605469 C 270.03125 52.824219 266.511719 49.074219 262.582031 45.011719 C 258.640625 40.929688 255.097656 36.148438 251.378906 33.117188 C 248.878906 31.074219 245.394531 29.070312 242.285156 27.171875 C 239.128906 25.246094 235.984375 23.015625 232.832031 21.226562 C 226.164062 17.433594 218.742188 14.757812 211.125 12.132812 C 203.746094 9.582031 195.355469 7.238281 186.265625 6.527344 C 181.542969 6.160156 176.648438 6.296875 171.5625 5.828125 C 166.65625 5.378906 161.285156 5.058594 156.511719 5.480469 C 138.832031 7.042969 124.984375 11.621094 112.746094 18.425781 C 110.753906 19.535156 108.800781 20.84375 106.796875 21.921875 C 104.699219 23.050781 102.109375 23.585938 100.144531 24.71875 C 97.996094 25.964844 95.828125 28.472656 93.496094 30.320312 C 91.097656 32.210938 88.4375 33.664062 86.492188 35.566406 C 84.46875 37.542969 82.691406 39.949219 80.535156 41.859375 C 78.15625 43.976562 75.53125 45.613281 73.886719 47.8125 C 70.21875 52.71875 66.195312 60.71875 63.738281 66.355469 C 63.117188 67.773438 62.878906 69.359375 62.335938 70.898438 C 58.351562 82.222656 55.367188 95.101562 52.179688 107.632812 C 50.207031 115.414062 49.652344 124.617188 49.03125 133.523438 C 48.664062 138.820312 47.921875 144.109375 47.980469 149.613281 C 48.140625 164.386719 53.371094 177.90625 56.734375 191.242188 C 60.066406 204.46875 64.425781 217.824219 71.441406 227.277344 C 77.152344 234.984375 82.339844 241.476562 89.289062 247.21875 C 94.070312 251.167969 98.910156 254.105469 103.996094 257.714844 C 106.535156 259.515625 108.933594 261.289062 111.695312 262.613281 C 114.53125 263.964844 117.75 264.746094 120.800781 266.109375 C 125.164062 268.0625 128.414062 270.351562 133.050781 271.707031 C 137.242188 272.933594 140.769531 274.230469 144.605469 275.90625 C 146.863281 276.890625 149.570312 278.3125 151.960938 278.707031 C 153.632812 278.980469 155.496094 278.46875 157.210938 278.707031 C 158.730469 278.914062 159.933594 279.625 161.410156 279.753906 C 164.527344 280.027344 167.796875 279.417969 171.210938 279.753906 C 177.460938 280.371094 181.289062 282.085938 187.667969 282.550781 C 194.769531 283.066406 202.058594 282.527344 208.320312 281.503906 C 214.863281 280.429688 221.191406 279.175781 226.53125 277.304688 C 231.796875 275.457031 236.554688 272.523438 241.226562 269.605469 C 250.546875 263.808594 260.136719 258.414062 267.484375 251.070312 C 274.933594 243.625 282.867188 236.648438 288.839844 227.628906 C 290.328125 225.378906 292.078125 223.351562 293.742188 221.328125 C 297.148438 217.195312 298.789062 214.246094 300.75 209.085938 C 302.984375 203.1875 305.523438 197.757812 308.101562 192.296875 C 309.8125 188.644531 311.042969 184.574219 312.652344 180.75 C 314.277344 176.875 316.9375 173.59375 318.25 169.902344 C 319.28125 167.019531 319.871094 163.996094 320.699219 161.15625 C 323.328125 152.152344 327.21875 144.511719 325.949219 133.171875 C 324.074219 131.707031 321.5625 131.09375 319.304688 130.027344 C 316.824219 128.847656 314.765625 127.78125 311.953125 129.324219 C 309.835938 130.476562 309.773438 132.839844 308.449219 136.320312 C 306.164062 142.304688 305.222656 146.671875 303.546875 152.414062 C 301.886719 158.109375 299.957031 163.207031 297.949219 168.152344 C 295.816406 173.40625 293.507812 177.613281 290.945312 182.148438 C 289.605469 184.515625 288.292969 186.859375 287.09375 189.144531 C 285.769531 191.644531 285.132812 194.238281 283.9375 196.492188 C 282.800781 198.660156 281.007812 200.371094 279.386719 202.4375 C 277.808594 204.464844 276.65625 206.585938 275.191406 208.738281 C 273.769531 210.816406 271.941406 212.671875 270.289062 214.683594 C 265.648438 220.335938 259.859375 225.769531 254.886719 230.777344 C 253.039062 232.628906 251.453125 234.820312 249.632812 236.375 C 246.058594 239.421875 241.398438 241.449219 237.03125 244.070312 C 232.804688 246.605469 228.339844 248.859375 224.074219 251.414062 C 217.480469 255.371094 210.265625 257.855469 201.667969 259.460938 C 198.835938 259.992188 195.972656 260.992188 193.269531 261.210938 C 183.628906 262.003906 174.753906 260.808594 167.363281 259.460938 C 164.683594 258.972656 161.9375 258.921875 158.960938 258.414062 C 155.222656 257.777344 151.339844 256.453125 147.40625 255.613281 C 143.386719 254.757812 139.632812 253.980469 136.207031 252.46875 C 132.949219 251.027344 129.667969 249.277344 126.402344 247.917969 C 122.855469 246.441406 119.199219 245.890625 115.898438 244.070312 C 109.226562 240.386719 104.921875 234.0625 99.445312 227.976562 C 95.316406 223.386719 91.105469 218.605469 88.589844 213.984375 C 86.113281 209.414062 84.242188 203.527344 81.941406 197.894531 C 79.675781 192.355469 77.699219 186.601562 76.339844 180.75 C 73.390625 168.066406 70.355469 154.347656 70.035156 141.21875 C 69.714844 127.847656 72.507812 113.71875 74.589844 100.289062 C 75.539062 94.136719 77.136719 87.953125 79.136719 82.09375 C 81.292969 75.785156 82.363281 69.570312 84.738281 64.601562 C 86.558594 60.796875 90.371094 56.246094 93.84375 52.710938 C 99.34375 47.09375 104.777344 42.203125 110.996094 37.664062 C 119.988281 31.101562 132.878906 26.8125 146.359375 25.070312 C 149.773438 24.628906 153.292969 23.917969 156.511719 23.671875 C 166.023438 22.949219 175.65625 24.273438 184.867188 25.421875 C 193.550781 26.503906 201.914062 28.617188 209.371094 31.019531 C 216.710938 33.375 224.113281 35.816406 231.074219 39.414062 C 236.269531 42.09375 241.472656 44.097656 245.78125 47.113281 C 250.691406 50.546875 252.445312 53.09375 256.28125 58.304688 C 258.273438 61.007812 260.234375 64.230469 261.535156 67.050781 C 264.414062 73.292969 267.257812 80.933594 268.890625 88.042969 C 271.722656 100.375 272.453125 119.359375 271.339844 133.171875 C 270.535156 143.070312 267.550781 154.339844 262.933594 162.554688 C 259.171875 169.265625 251.992188 179.96875 244.035156 181.800781 C 236.488281 183.53125 228.097656 179.417969 224.777344 174.453125 C 221.628906 169.742188 220.140625 161.796875 218.472656 154.863281 C 216.734375 147.585938 215.019531 140.527344 213.570312 133.523438 C 210.515625 118.679688 207.132812 100.921875 206.222656 88.390625 C 205.613281 80.011719 206.675781 71.578125 206.222656 63.207031 C 203.597656 62.449219 201.273438 61.386719 198.515625 60.757812 C 195.273438 63.328125 194.917969 68.03125 191.515625 70.199219 Z M 215.675781 201.390625 C 210.011719 209.527344 204.945312 216.773438 196.070312 220.628906 C 193.730469 221.648438 189.441406 222.65625 185.917969 223.429688 C 182.863281 224.097656 179.769531 224.042969 176.460938 224.480469 C 173.605469 224.855469 170.789062 226.296875 168.0625 226.578125 C 162.578125 227.144531 156.03125 226.480469 150.210938 225.527344 C 136.238281 223.246094 128.96875 218.460938 121.148438 209.785156 C 117.699219 205.960938 114.296875 202.164062 112.042969 197.894531 C 110.84375 195.605469 110.011719 192.640625 108.898438 189.847656 C 106.066406 182.765625 102.746094 172.625 101.894531 163.609375 C 100.957031 153.640625 101.535156 142.625 102.246094 132.820312 C 103.597656 114.152344 107.605469 97.890625 116.246094 85.246094 C 118.195312 82.398438 120.628906 79.351562 122.898438 76.496094 C 125.261719 73.527344 128.375 69.648438 130.953125 68.101562 C 133.96875 66.285156 138.328125 63.703125 142.507812 61.804688 C 150.570312 58.136719 156.050781 56.449219 168.0625 57.253906 C 170.257812 57.402344 172.707031 57.957031 175.066406 58.304688 C 181.53125 59.261719 186.0625 60.542969 189.070312 65.300781 C 191.933594 61.304688 192.796875 56.328125 197.46875 55.507812 C 199.582031 55.136719 200.851562 56.066406 203.417969 56.90625 C 205.46875 57.574219 207.929688 57.566406 209.371094 58.304688 C 210.472656 58.867188 211.386719 60.378906 212.871094 61.457031 C 214.683594 62.773438 216.789062 63.484375 218.824219 64.953125 C 220.074219 65.855469 223.398438 67.542969 224.074219 69.152344 C 225.304688 72.066406 224.300781 79.148438 224.425781 84.191406 C 224.554688 89.566406 225.28125 94.210938 225.820312 97.835938 C 227.261719 107.25 227.449219 116.25 229.328125 124.425781 C 231.878906 135.53125 235.023438 149.109375 240.878906 158.359375 C 242.960938 161.648438 245.894531 164.878906 249.28125 165.003906 C 253.277344 165.160156 253.339844 162.59375 255.933594 161.15625 C 256.59375 160.792969 257.316406 161.1875 258.03125 160.109375 C 266.152344 146.050781 268.339844 119.855469 265.039062 97.835938 C 263.503906 87.597656 260.761719 78.5625 256.980469 70.199219 C 254.226562 64.09375 249.949219 59.59375 247.175781 54.457031 C 242.089844 50.457031 235.546875 47.890625 230.375 43.960938 C 225.171875 43.304688 220.679688 41.660156 216.378906 40.464844 C 213.988281 39.800781 211.742188 39.105469 209.371094 38.367188 C 201.988281 36.070312 192.46875 34.957031 182.0625 35.566406 C 175.371094 35.960938 167.738281 36.0625 162.109375 37.316406 C 157.8125 38.269531 152.535156 40.609375 147.757812 42.566406 C 136.96875 46.96875 128.980469 53.457031 120.800781 60.757812 C 114.464844 66.40625 109.273438 71.894531 106.445312 79.296875 C 105.410156 82.007812 104.746094 85.1875 103.648438 88.042969 C 102.480469 91.058594 101.035156 94.015625 100.492188 96.441406 C 99.949219 98.886719 99.972656 101.632812 99.445312 104.136719 C 98.046875 110.726562 96.597656 118.507812 96.292969 126.175781 C 96.070312 131.738281 95.453125 136.898438 95.941406 142.269531 C 96.398438 147.265625 97.167969 152.117188 97.691406 157.3125 C 98.640625 166.621094 101.753906 175.867188 103.996094 184.949219 C 107.847656 200.546875 112.832031 211.527344 122.546875 220.980469 C 126.019531 224.355469 129.191406 228.015625 132.351562 230.425781 C 135.867188 233.109375 140.203125 235.148438 144.253906 237.421875 C 155.917969 243.976562 169.09375 250.367188 187.3125 250.367188 C 193.988281 250.367188 200.074219 251.109375 205.875 250.714844 C 210.953125 250.371094 215.90625 248.265625 220.230469 246.519531 C 228.726562 243.074219 236.910156 238.839844 244.382812 233.574219 C 248 231.027344 251.789062 226.722656 255.582031 222.730469 C 259.113281 219.019531 263.261719 215.21875 266.4375 211.539062 C 269.898438 207.519531 272.273438 202.652344 275.539062 198.589844 C 277.34375 196.332031 278.925781 194.421875 280.09375 191.941406 C 283.574219 184.558594 287.464844 177.84375 291.296875 170.253906 C 293.703125 165.476562 295.167969 159.898438 297.246094 154.160156 C 298.140625 151.679688 299.296875 148.832031 300.042969 145.765625 C 301.769531 138.722656 304.40625 125.382812 310.199219 123.027344 C 312.140625 122.234375 315.636719 122.445312 318.601562 121.625 C 321.410156 120.851562 324.15625 119.828125 326.300781 119.875 C 331.324219 120 339.964844 124.457031 342.40625 127.921875 C 343.746094 129.824219 343.84375 132.515625 344.863281 134.921875 C 349.933594 138.492188 347.363281 148.984375 346.257812 155.5625 C 344.429688 166.398438 341.527344 176.722656 337.152344 186.347656 C 331.804688 198.136719 326.8125 210.585938 318.953125 220.28125 C 317.691406 221.828125 316.105469 223.277344 314.75 224.828125 C 313.421875 226.347656 312.539062 228.148438 311.246094 229.722656 C 310.023438 231.222656 308.035156 232.402344 306.703125 233.921875 C 305.269531 235.546875 304.191406 237.300781 302.847656 238.824219 C 299.933594 242.125 297.285156 245.296875 294.441406 247.566406 C 291.175781 250.179688 287.597656 252.367188 284.289062 254.914062 C 282.621094 256.203125 281.046875 257.664062 279.386719 258.761719 C 270.835938 264.449219 260.429688 268.332031 250.335938 272.753906 C 242.480469 276.199219 234.8125 280.609375 226.179688 283.253906 C 216.984375 286.058594 207.238281 286.640625 197.117188 288.5 C 191.722656 287.09375 186.503906 288.148438 181.363281 287.449219 C 177.269531 286.894531 173.492188 285.347656 169.8125 285 C 162.894531 284.351562 155.550781 285.171875 148.457031 283.253906 C 144.730469 282.242188 141.230469 279.847656 137.253906 278.355469 C 134.203125 277.207031 130.761719 277.019531 127.800781 275.90625 C 124.933594 274.828125 122.285156 272.738281 119.402344 271.359375 C 116.394531 269.921875 113.085938 269.140625 110.296875 267.859375 C 103.144531 264.570312 96.367188 259.246094 89.988281 254.566406 C 83.871094 250.074219 78.074219 244.628906 73.1875 238.472656 C 69.800781 234.207031 66.179688 230.011719 63.738281 225.878906 C 58.828125 217.582031 54.742188 205.578125 51.832031 193.34375 C 49.019531 181.511719 44.699219 169.523438 43.078125 157.660156 C 41.625 146.992188 43.296875 135.4375 44.132812 125.828125 C 44.421875 122.488281 44.433594 119.15625 44.832031 115.679688 C 45.597656 109.039062 48.0625 102.515625 49.734375 96.089844 C 53.136719 82.976562 55.726562 70.898438 61.285156 59.355469 C 65.808594 49.957031 69.585938 44.035156 76.691406 37.664062 C 78.960938 35.628906 80.882812 33.316406 82.992188 31.371094 C 85.113281 29.410156 87.972656 27.652344 90.339844 25.769531 C 95.054688 22.027344 98.371094 19.992188 103.996094 17.023438 C 114.355469 11.558594 125.367188 5.566406 138.652344 2.683594 C 148.34375 0.578125 159.671875 0.015625 171.914062 0.582031 C 177.410156 0.835938 182.890625 0.855469 188.015625 1.28125 C 200.199219 2.296875 212.667969 6.539062 223.027344 10.730469 C 224.777344 11.433594 226.605469 12.082031 228.277344 12.828125 C 234.445312 15.574219 239.0625 19.15625 244.730469 22.621094 C 248.8125 25.117188 253.046875 27.472656 255.933594 29.96875 C 258.851562 32.492188 261.4375 36.386719 264.6875 39.765625 C 267.714844 42.90625 271.429688 45.703125 273.785156 48.859375 C 275.777344 51.523438 277.257812 54.828125 279.039062 57.953125 C 282.515625 64.039062 285.898438 70.050781 288.140625 77.546875 C 288.703125 79.417969 289.003906 81.488281 289.539062 83.496094 C 291.320312 90.132812 290.945312 100.257812 290.945312 109.734375 C 290.945312 116.703125 291.363281 123.792969 290.945312 130.027344 C 290.375 138.429688 288.574219 146.859375 287.09375 154.511719 C 284.054688 170.265625 277.832031 181.816406 267.484375 191.242188 C 260.203125 197.886719 253.738281 205.878906 242.984375 208.035156 C 238.40625 208.953125 230.808594 208.617188 226.53125 207.335938 C 222.417969 206.109375 220.191406 203.914062 215.675781 201.390625 " fill-opacity="1" fill-rule="evenodd"/></g></svg>