<svg xmlns="http://www.w3.org/2000/svg" xmlns:xlink="http://www.w3.org/1999/xlink" width="385" zoomAndPan="magnify" viewBox="0 0 288.75 288.749996" height="385" preserveAspectRatio="xMidYMid meet" version="1.0"><defs><clipPath id="f979bb0f8c"><path d="M 0 0 L 288.5 0 L 288.5 288.5 L 0 288.5 Z M 0 0 " clip-rule="nonzero"/></clipPath></defs><g clip-path="url(#f979bb0f8c)"><path fill="#000000" d="M 284.070312 288.730469 L 4.703125 288.730469 C 2.171875 288.730469 0.121094 286.679688 0.121094 284.148438 L 0.121094 258.050781 C 0.121094 214.632812 35.445312 179.308594 78.867188 179.308594 L 209.90625 179.308594 C 253.328125 179.308594 288.652344 214.632812 288.652344 258.050781 L 288.652344 284.148438 C 288.652344 286.679688 286.601562 288.730469 284.070312 288.730469 Z M 144.386719 166.996094 C 98.347656 166.996094 60.890625 129.539062 60.890625 83.496094 C 60.890625 37.457031 98.347656 0 144.386719 0 C 190.425781 0 227.882812 37.457031 227.882812 83.496094 C 227.882812 129.539062 190.425781 166.996094 144.386719 166.996094 Z M 144.386719 166.996094 " fill-opacity="1" fill-rule="nonzero"/></g></svg>